<?xml version="1.0" encoding="iso-8859-1"?>
<!-- Generator: Adobe Illustrator 18.1.1, SVG Export Plug-In . SVG Version: 6.00 Build 0)  -->
<svg version="1.1" id="Capa_1" xmlns="http://www.w3.org/2000/svg" xmlns:xlink="http://www.w3.org/1999/xlink" x="0px" y="0px"
	 viewBox="0 0 73.994 73.994" style="enable-background:new 0 0 73.994 73.994;" xml:space="preserve">
<g id="_x37_7_Essential_Icons_47_">
	<path id="Pin" d="M72.405,31.969l-30.5-30.4c-2.8-2.9-3.5-1.1-3.5,0.3v14l-22.7,16.8h-13.7c-3.9,0-0.8,4.2-1.4,3.5l17.2,17.1
		l-14.4,14.5c-0.8,0.8-0.8,2.1,0,2.9s2.1,0.8,2.9,0l14.4-14.4l17.1,17.2c-0.5-0.5,3.6,2.2,3.6-1.4v-13.8l16.8-22.7h12.7
		C73.005,35.469,75.805,35.469,72.405,31.969z M6.905,36.569h8.9l21.7,21.7v8.9L6.905,36.569z M39.405,54.269l-19.7-19.7l20.1-14.6
		l14.4,14.6L39.405,54.269z M57.205,31.569l-14.8-14.8v-8.9l23.7,23.7H57.205z"/>
</g>
<g>
</g>
<g>
</g>
<g>
</g>
<g>
</g>
<g>
</g>
<g>
</g>
<g>
</g>
<g>
</g>
<g>
</g>
<g>
</g>
<g>
</g>
<g>
</g>
<g>
</g>
<g>
</g>
<g>
</g>
</svg>
